<svg width="256" height="256" viewBox="0 0 256 256" fill="none" xmlns="http://www.w3.org/2000/svg">
  <defs>
    <radialGradient id="bgGlow" cx="0" cy="0" r="1" gradientUnits="userSpaceOnUse" gradientTransform="translate(128 128) rotate(90) scale(118)">
      <stop offset="0" stop-color="#6C2BD9" stop-opacity="0.42"/>
      <stop offset="1" stop-color="#6C2BD9" stop-opacity="0"/>
    </radialGradient>
    <linearGradient id="ringA" x1="52" y1="88" x2="212" y2="182" gradientUnits="userSpaceOnUse">
      <stop stop-color="#F4E8FF"/>
      <stop offset="0.45" stop-color="#D6BBFB"/>
      <stop offset="1" stop-color="#6C2BD9"/>
    </linearGradient>
    <linearGradient id="ringB" x1="194" y1="66" x2="96" y2="212" gradientUnits="userSpaceOnUse">
      <stop stop-color="#6C2BD9"/>
      <stop offset="0.58" stop-color="#B78EF7"/>
      <stop offset="1" stop-color="#F1D9FF"/>
    </linearGradient>
    <filter id="softGlow" x="26" y="30" width="204" height="196" filterUnits="userSpaceOnUse" color-interpolation-filters="sRGB">
      <feGaussianBlur stdDeviation="12" result="blur"/>
      <feMerge>
        <feMergeNode in="blur"/>
        <feMergeNode in="SourceGraphic"/>
      </feMerge>
    </filter>
  </defs>

  <rect width="256" height="256" rx="128" fill="#0F0B1A"/>
  <circle cx="128" cy="128" r="112" fill="url(#bgGlow)"/>

  <g filter="url(#softGlow)">
    <path
      d="M69 85C83 49 120 31 156 37C193 42 220 74 222 111C224 148 205 190 166 204C126 218 82 205 59 172C39 143 40 109 69 85Z"
      stroke="url(#ringA)"
      stroke-width="12"
      stroke-linecap="round"
    />
    <path
      d="M70 85C104 75 136 79 165 103C183 118 193 140 190 165C187 186 175 203 156 214"
      stroke="url(#ringB)"
      stroke-width="12"
      stroke-linecap="round"
    />
    <path
      d="M156 37C144 51 132 68 117 86C102 104 85 120 59 132"
      stroke="url(#ringB)"
      stroke-width="12"
      stroke-linecap="round"
      opacity="0.95"
    />
  </g>

  <circle cx="84" cy="72" r="10" fill="#FFF7FF"/>
  <circle cx="84" cy="72" r="22" fill="#D6BBFB" fill-opacity="0.26"/>
</svg>
